<svg width="26" height="26" viewBox="0 0 26 26" fill="none" xmlns="http://www.w3.org/2000/svg">
  <path d="M12.7242 15.8048C12.7217 15.8048 12.7193 15.8048 12.7169 15.8048C12.2683 15.8007 11.9076 15.4338 11.9117 14.9849L11.9153 14.5787C11.9153 14.5555 11.9165 14.532 11.919 14.5088C12.0315 13.327 12.816 12.6027 13.4469 12.0205C13.6606 11.8231 13.8629 11.6366 14.0351 11.442C14.2452 11.2052 14.5499 10.7201 14.2293 10.1347C13.86 9.45872 12.9582 9.26738 12.2574 9.42785C11.5253 9.59522 11.2556 10.2204 11.1597 10.5779C11.0435 11.0114 10.5978 11.2686 10.1644 11.1528C9.7309 11.0366 9.47374 10.5909 9.58953 10.1575C9.91331 8.94807 10.7534 8.1051 11.8942 7.84388C13.4294 7.49329 14.9756 8.11363 15.6545 9.35472C16.2196 10.3882 16.0648 11.6009 15.2502 12.5198C15.024 12.7749 14.7822 12.9984 14.5482 13.2141C13.9653 13.7524 13.6009 14.1123 13.5391 14.6319L13.5359 14.9988C13.5326 15.446 13.1694 15.8048 12.7242 15.8048V15.8048Z" fill="#AAAAAA" />
  <path d="M12.7237 18.2406C12.5125 18.2406 12.3012 18.1553 12.1509 18.005C11.9966 17.8547 11.9112 17.6434 11.9112 17.4281C11.9112 17.2169 11.9966 17.0056 12.1509 16.8553C12.4516 16.5547 12.9959 16.5547 13.2966 16.8553C13.4509 17.0056 13.5362 17.2169 13.5362 17.4281C13.5362 17.6434 13.4509 17.8506 13.3006 18.005C13.1462 18.1553 12.9391 18.2406 12.7237 18.2406Z" fill="#AAAAAA" />
  <path d="M12.9687 23.5613C12.0445 23.5613 11.1284 23.441 10.2456 23.2034C6.4415 22.18 3.46287 19.0287 2.65728 15.1747C1.83625 11.2482 3.35156 7.12074 6.51828 4.65927C8.34884 3.23618 10.6576 2.45212 13.0195 2.45212C14.6547 2.45212 16.2784 2.83237 17.7157 3.55102C21.2652 5.32674 23.5584 9.03662 23.5584 13.0028C23.5584 16.239 22.0313 19.3582 19.4736 21.3464C17.6365 22.7748 15.3262 23.5613 12.9687 23.5613V23.5613ZM13.0199 4.07712C11.0175 4.07712 9.06262 4.73931 7.51603 5.94221C4.836 8.02546 3.55306 11.5188 4.24815 14.8419C4.92984 18.1021 7.44981 20.7683 10.6681 21.634C11.4132 21.8343 12.1875 21.9363 12.9687 21.9363H12.9691C14.9671 21.9363 16.9227 21.2712 18.4767 20.0635C20.6416 18.3808 21.9338 15.7414 21.9338 13.0028C21.9338 9.64681 19.9932 6.50731 16.9894 5.00459C15.7763 4.39806 14.404 4.07712 13.0199 4.07712V4.07712Z" fill="#AAAAAA" />
</svg>
