<svg width="18" height="21" viewBox="0 0 18 21" fill="none" xmlns="http://www.w3.org/2000/svg">
<path d="M11.9055 17.1902H12.5137C12.6657 17.1902 12.8178 17.0762 12.8178 16.8861V6.54718C12.8178 6.39513 12.6657 6.24309 12.5137 6.24309H11.9055C11.7154 6.24309 11.6014 6.39513 11.6014 6.54718V16.8861C11.6014 17.0762 11.7154 17.1902 11.9055 17.1902ZM5.82377 17.1902H6.43194C6.58398 17.1902 6.73603 17.0762 6.73603 16.8861V6.54718C6.73603 6.39513 6.58398 6.24309 6.43194 6.24309H5.82377C5.63371 6.24309 5.51968 6.39513 5.51968 6.54718V16.8861C5.51968 17.0762 5.63371 17.1902 5.82377 17.1902ZM17.3791 3.20222H13.4259L12.1336 1.52975C11.8295 1.11163 11.1833 0.769531 10.6892 0.769531H7.64829C7.11614 0.769531 6.46995 1.11163 6.16586 1.52975L4.91151 3.20222H0.958383C0.768329 3.20222 0.654297 3.35427 0.654297 3.50631V4.11448C0.654297 4.30454 0.768329 4.41857 0.958383 4.41857H1.87064V18.4066C1.87064 19.4328 2.66887 20.2311 3.69516 20.2311H14.6423C15.6306 20.2311 16.4668 19.4328 16.4668 18.4066V4.41857H17.3791C17.5311 4.41857 17.6831 4.30454 17.6831 4.11448V3.50631C17.6831 3.35427 17.5311 3.20222 17.3791 3.20222ZM7.15415 2.25195C7.23017 2.09991 7.45823 2.02389 7.64829 1.98588H10.6892C10.8412 2.02389 11.0693 2.09991 11.1453 2.25195L11.9055 3.20222H6.43194L7.15415 2.25195ZM15.2504 18.4066C15.2504 18.7486 14.9464 19.0147 14.6423 19.0147H3.69516C3.35306 19.0147 3.08699 18.7486 3.08699 18.4066V4.41857H15.2504V18.4066ZM8.86463 17.1902H9.47281C9.62485 17.1902 9.77689 17.0762 9.77689 16.8861V6.54718C9.77689 6.39513 9.62485 6.24309 9.47281 6.24309H8.86463C8.67458 6.24309 8.56055 6.39513 8.56055 6.54718V16.8861C8.56055 17.0762 8.67458 17.1902 8.86463 17.1902Z" fill="#868E96"/>
</svg>
